<?xml version="1.0" standalone="no"?>
<!DOCTYPE svg PUBLIC "-//W3C//DTD SVG 20010904//EN"
 "http://www.w3.org/TR/2001/REC-SVG-20010904/DTD/svg10.dtd">
<svg version="1.0" xmlns="http://www.w3.org/2000/svg"
 width="512.000000pt" height="512.000000pt" viewBox="0 0 512.000000 512.000000"
 preserveAspectRatio="xMidYMid meet">
<metadata>
Created by potrace 1.14, written by Peter Selinger 2001-2017
</metadata>
<g transform="translate(0.000000,512.000000) scale(0.100000,-0.100000)"
fill="#000000" stroke="none">
<path d="M1808 5115 c-2 -2 -28 -6 -58 -9 -77 -9 -102 -14 -210 -41 -574 -145
-1035 -604 -1185 -1180 -49 -190 -53 -249 -54 -780 l-1 -430 -52 -25 c-68 -33
-159 -122 -193 -190 -56 -109 -55 -88 -55 -1117 1 -819 3 -959 16 -1005 42
-148 142 -258 284 -309 l65 -24 1590 0 c1774 0 1623 -6 1738 69 98 63 173 168
197 276 6 29 9 397 7 1025 -2 972 -2 980 -23 1031 -62 151 -193 260 -345 288
-13 3 -543 5 -1177 5 l-1152 1 0 423 c1 440 5 496 47 606 93 244 303 423 558
475 94 19 248 13 345 -14 128 -36 223 -94 325 -195 101 -101 158 -195 195
-325 19 -64 23 -108 27 -305 5 -251 11 -279 66 -319 27 -20 43 -21 365 -24
223 -2 350 0 374 8 23 7 48 24 65 47 l28 36 1 256 c1 264 -9 364 -50 521 -165
625 -694 1105 -1336 1210 -64 11 -393 23 -402 15z"/>
<path d="M4610 3738 c-179 -88 -335 -172 -348 -186 -48 -51 -54 -106 -19 -172
26 -49 75 -80 127 -80 53 0 692 321 722 363 49 69 18 185 -59 222 -62 30 -83
22 -423 -147z"/>
<path d="M4302 2983 c-53 -26 -76 -67 -75 -134 0 -74 33 -123 93 -139 26 -7
159 -10 373 -8 l334 3 35 27 c87 66 61 229 -40 258 -22 6 -169 10 -362 10
-279 0 -330 -3 -358 -17z"/>
<path d="M4305 2385 c-74 -37 -106 -157 -59 -222 28 -38 674 -363 722 -363 84
0 146 65 147 154 0 90 -6 94 -378 280 -349 174 -370 181 -432 151z"/>
</g>
</svg>
